# xmcd
#
# Track frame offsets:
#	150
#	18435
#	32627
#	45690
#	57537
#	68572
#	80755
#	93502
#	109812
#	122935
#	139515
#	151077
#	171032
#	187770
#	199257
#
# Disc length: 2889 seconds
# Revision: 0
# Processed by: cddbd v1.5.2PL0 Copyright (c) Steve Scherf et al.
# Submitted via: dBpowerAMP V12.0
#
DISCID=c60b470f
DTITLE=Paul "Pixie" Jenkins - Pixiland
DYEAR=1993
DGENRE=Country
TTITLE0=My Country
TTITLE1=Cunnamulla Fella
TTITLE2=Lonesome and Blue
TTITLE3=Hillbilly Waltz
TTITLE4=Kindee
TTITLE5=Seet Temptation
TTITLE6=Rusty it's Goodbye
TTITLE7=Galleries of Pink Galahs
TTITLE8=Dancin The Line
TTITLE9=Born to Run
TTITLE10=Brilliancy
TTITLE11=Young at Heart
TTITLE12=Raindance
TTITLE13=Paul's Reel
TTITLE14=Danny Boy
EXTD=
EXTT0=
EXTT1=
EXTT2=
EXTT3=
EXTT4=
EXTT5=
EXTT6=
EXTT7=
EXTT8=
EXTT9=
EXTT10=
EXTT11=
EXTT12=
EXTT13=
EXTT14=
PLAYORDER=
